<mxfile host="app.diagrams.net" agent="Mozilla/5.0 (Windows NT 10.0; Win64; x64) AppleWebKit/537.36 (KHTML, like Gecko) Chrome/139.0.0.0 Safari/537.36 Edg/139.0.0.0" version="28.1.2">
  <diagram name="第 1 页" id="m9mAgdQwSTb6mREInXTn">
    <mxGraphModel dx="3080" dy="813" grid="1" gridSize="10" guides="1" tooltips="1" connect="1" arrows="1" fold="1" page="1" pageScale="1" pageWidth="827" pageHeight="1169" math="0" shadow="0">
      <root>
        <mxCell id="0" />
        <mxCell id="1" parent="0" />
        <mxCell id="gBoSZ08GJuo9Bw_5KC7_-15" style="edgeStyle=orthogonalEdgeStyle;rounded=0;orthogonalLoop=1;jettySize=auto;html=1;entryX=1;entryY=0.5;entryDx=0;entryDy=0;" parent="1" source="gBoSZ08GJuo9Bw_5KC7_-1" target="gBoSZ08GJuo9Bw_5KC7_-14" edge="1">
          <mxGeometry relative="1" as="geometry" />
        </mxCell>
        <mxCell id="gBoSZ08GJuo9Bw_5KC7_-16" value="无论什么样的io，base_io_waiter&lt;div&gt;都会先进入suspend&lt;/div&gt;" style="edgeLabel;html=1;align=center;verticalAlign=middle;resizable=0;points=[];" parent="gBoSZ08GJuo9Bw_5KC7_-15" vertex="1" connectable="0">
          <mxGeometry x="0.1833" y="6" relative="1" as="geometry">
            <mxPoint as="offset" />
          </mxGeometry>
        </mxCell>
        <mxCell id="gBoSZ08GJuo9Bw_5KC7_-1" value="base_io_awaiter" style="rounded=0;whiteSpace=wrap;html=1;sketch=1;curveFitting=1;jiggle=2;" parent="1" vertex="1">
          <mxGeometry x="80" y="230" width="180" height="60" as="geometry" />
        </mxCell>
        <UserObject label="&lt;pre class=&quot;relative overflow-auto border border-tint-subtle bg-tint-subtle theme-muted:bg-tint-base p-2 [grid-area:2/1] contrast-more:border-tint contrast-more:bg-tint-base [html.theme-bold.sidebar-filled_&amp;amp;]:bg-tint-base rounded-md straight-corners:rounded-xs shadow-xs&quot; style=&quot;box-sizing: border-box; border: 1px solid rgb(226, 230, 236); margin: 0px; padding: 8px; scrollbar-color: rgb(213, 217, 224) rgba(0, 0, 0, 0); scrollbar-width: thin; font-family: &amp;quot;IBM Plex Mono&amp;quot;, monospace; font-feature-settings: normal; font-variation-settings: normal; font-size: medium; -webkit-font-smoothing: auto; position: relative; overflow: auto; border-radius: 6px; background-color: rgb(249, 250, 251); box-shadow: rgba(0, 0, 0, 0) 0px 0px 0px 0px, rgba(0, 0, 0, 0) 0px 0px 0px 0px, rgba(0, 0, 0, 0) 0px 0px 0px 0px, rgba(0, 0, 0, 0) 0px 0px 0px 0px, rgba(0, 0, 0, 0.05) 0px 1px 2px 0px; --tw-shadow: 0 1px 2px 0 #0000000d; grid-area: 2 / 1; color: rgb(28, 29, 31); font-style: normal; font-variant-ligatures: normal; font-variant-caps: normal; font-weight: 400; letter-spacing: normal; orphans: 2; text-align: start; text-indent: 0px; text-transform: none; widows: 2; word-spacing: 0px; -webkit-text-stroke-width: 0px; text-decoration-thickness: initial; text-decoration-style: initial; text-decoration-color: initial;&quot;&gt;&lt;code id=&quot;:S1:&quot; class=&quot;inline-grid min-w-full grid-cols-[auto_1fr] [count-reset:line] print:whitespace-pre-wrap&quot; style=&quot;box-sizing: border-box; border: 0px solid oklch(0.928 0.006 264.531); margin: 0px; padding: 0px; scrollbar-color: rgb(213, 217, 224) rgba(0, 0, 0, 0); scrollbar-width: thin; font-family: &amp;quot;IBM Plex Mono&amp;quot;, monospace; font-feature-settings: normal; font-variation-settings: normal; font-size: 1em; -webkit-font-smoothing: auto; display: inline-grid; min-width: 100%; grid-template-columns: auto 1fr;&quot;&gt;&lt;span class=&quot;highlight-line&quot; style=&quot;box-sizing: border-box; border: 0px solid oklch(0.928 0.006 264.531); margin: 0px; padding: 0px; scrollbar-color: rgb(213, 217, 224) rgba(0, 0, 0, 0); scrollbar-width: thin; grid-column: span 2 / span 2; grid-template-columns: subgrid; border-radius: 4px; --tw-ring-shadow: 0 0 0 calc(1px + 0px)transparent; box-shadow: rgba(0, 0, 0, 0) 0px 0px 0px 0px, rgba(0, 0, 0, 0) 0px 0px 0px 0px, rgba(0, 0, 0, 0) 0px 0px 0px 0px, rgba(0, 0, 0, 0) 0px 0px 0px 1px, rgba(0, 0, 0, 0) 0px 0px 0px 0px; --tw-ring-color: transparent; display: grid; position: relative; counter-increment: line 1;&quot;&gt;&lt;span class=&quot;highlight-line-content&quot; style=&quot;box-sizing: border-box; border: 0px solid oklch(0.928 0.006 264.531); margin: 0px 0px 0px 12px; padding: 0px; scrollbar-color: rgb(213, 217, 224) rgba(0, 0, 0, 0); scrollbar-width: thin; font-size: 14px; line-height: 1.42857; display: block;&quot;&gt;&lt;span style=&quot;box-sizing: border-box; border: 0px solid oklch(0.928 0.006 264.531); margin: 0px; padding: 0px; scrollbar-color: rgb(213, 217, 224) rgba(0, 0, 0, 0); scrollbar-width: thin; color: rgb(228, 0, 33);&quot;&gt;struct&lt;/span&gt;&lt;span style=&quot;box-sizing: border-box; border: 0px solid oklch(0.928 0.006 264.531); margin: 0px; padding: 0px; scrollbar-color: rgb(213, 217, 224) rgba(0, 0, 0, 0); scrollbar-width: thin; color: rgb(28, 29, 31);&quot;&gt; &lt;/span&gt;&lt;span style=&quot;box-sizing: border-box; border: 0px solid oklch(0.928 0.006 264.531); margin: 0px; padding: 0px; scrollbar-color: rgb(213, 217, 224) rgba(0, 0, 0, 0); scrollbar-width: thin; color: rgb(57, 115, 225);&quot;&gt;io_info&lt;/span&gt;&#xa;&lt;/span&gt;&lt;/span&gt;&lt;span class=&quot;highlight-line&quot; style=&quot;box-sizing: border-box; border: 0px solid oklch(0.928 0.006 264.531); margin: 0px; padding: 0px; scrollbar-color: rgb(213, 217, 224) rgba(0, 0, 0, 0); scrollbar-width: thin; grid-column: span 2 / span 2; grid-template-columns: subgrid; border-radius: 4px; --tw-ring-shadow: 0 0 0 calc(1px + 0px)transparent; box-shadow: rgba(0, 0, 0, 0) 0px 0px 0px 0px, rgba(0, 0, 0, 0) 0px 0px 0px 0px, rgba(0, 0, 0, 0) 0px 0px 0px 0px, rgba(0, 0, 0, 0) 0px 0px 0px 1px, rgba(0, 0, 0, 0) 0px 0px 0px 0px; --tw-ring-color: transparent; display: grid; position: relative; counter-increment: line 1;&quot;&gt;&lt;span class=&quot;highlight-line-content&quot; style=&quot;box-sizing: border-box; border: 0px solid oklch(0.928 0.006 264.531); margin: 0px 0px 0px 12px; padding: 0px; scrollbar-color: rgb(213, 217, 224) rgba(0, 0, 0, 0); scrollbar-width: thin; font-size: 14px; line-height: 1.42857; display: block;&quot;&gt;&lt;span style=&quot;box-sizing: border-box; border: 0px solid oklch(0.928 0.006 264.531); margin: 0px; padding: 0px; scrollbar-color: rgb(213, 217, 224) rgba(0, 0, 0, 0); scrollbar-width: thin; color: rgb(28, 29, 31);&quot;&gt;{&lt;/span&gt;&#xa;&lt;/span&gt;&lt;/span&gt;&lt;span class=&quot;highlight-line&quot; style=&quot;box-sizing: border-box; border: 0px solid oklch(0.928 0.006 264.531); margin: 0px; padding: 0px; scrollbar-color: rgb(213, 217, 224) rgba(0, 0, 0, 0); scrollbar-width: thin; grid-column: span 2 / span 2; grid-template-columns: subgrid; border-radius: 4px; --tw-ring-shadow: 0 0 0 calc(1px + 0px)transparent; box-shadow: rgba(0, 0, 0, 0) 0px 0px 0px 0px, rgba(0, 0, 0, 0) 0px 0px 0px 0px, rgba(0, 0, 0, 0) 0px 0px 0px 0px, rgba(0, 0, 0, 0) 0px 0px 0px 1px, rgba(0, 0, 0, 0) 0px 0px 0px 0px; --tw-ring-color: transparent; display: grid; position: relative; counter-increment: line 1;&quot;&gt;&lt;span class=&quot;highlight-line-content&quot; style=&quot;box-sizing: border-box; border: 0px solid oklch(0.928 0.006 264.531); margin: 0px 0px 0px 12px; padding: 0px; scrollbar-color: rgb(213, 217, 224) rgba(0, 0, 0, 0); scrollbar-width: thin; font-size: 14px; line-height: 1.42857; display: block;&quot;&gt;&lt;span style=&quot;box-sizing: border-box; border: 0px solid oklch(0.928 0.006 264.531); margin: 0px; padding: 0px; scrollbar-color: rgb(213, 217, 224) rgba(0, 0, 0, 0); scrollbar-width: thin; color: rgb(28, 29, 31);&quot;&gt;    coroutine_handle&lt;/span&gt;&lt;span style=&quot;box-sizing: border-box; border: 0px solid oklch(0.928 0.006 264.531); margin: 0px; padding: 0px; scrollbar-color: rgb(213, 217, 224) rgba(0, 0, 0, 0); scrollbar-width: thin; color: rgb(228, 0, 33);&quot;&gt;&amp;lt;&amp;gt;&lt;/span&gt;&lt;span style=&quot;box-sizing: border-box; border: 0px solid oklch(0.928 0.006 264.531); margin: 0px; padding: 0px; scrollbar-color: rgb(213, 217, 224) rgba(0, 0, 0, 0); scrollbar-width: thin; color: rgb(28, 29, 31);&quot;&gt; handle;&lt;/span&gt;&lt;span style=&quot;box-sizing: border-box; border: 0px solid oklch(0.928 0.006 264.531); margin: 0px; padding: 0px; scrollbar-color: rgb(213, 217, 224) rgba(0, 0, 0, 0); scrollbar-width: thin; color: rgb(120, 120, 120);&quot;&gt; // IO 绑定的协程句柄&lt;/span&gt;&#xa;&lt;/span&gt;&lt;/span&gt;&lt;span class=&quot;highlight-line&quot; style=&quot;box-sizing: border-box; border: 0px solid oklch(0.928 0.006 264.531); margin: 0px; padding: 0px; scrollbar-color: rgb(213, 217, 224) rgba(0, 0, 0, 0); scrollbar-width: thin; grid-column: span 2 / span 2; grid-template-columns: subgrid; border-radius: 4px; --tw-ring-shadow: 0 0 0 calc(1px + 0px)transparent; box-shadow: rgba(0, 0, 0, 0) 0px 0px 0px 0px, rgba(0, 0, 0, 0) 0px 0px 0px 0px, rgba(0, 0, 0, 0) 0px 0px 0px 0px, rgba(0, 0, 0, 0) 0px 0px 0px 1px, rgba(0, 0, 0, 0) 0px 0px 0px 0px; --tw-ring-color: transparent; display: grid; position: relative; counter-increment: line 1;&quot;&gt;&lt;span class=&quot;highlight-line-content&quot; style=&quot;box-sizing: border-box; border: 0px solid oklch(0.928 0.006 264.531); margin: 0px 0px 0px 12px; padding: 0px; scrollbar-color: rgb(213, 217, 224) rgba(0, 0, 0, 0); scrollbar-width: thin; font-size: 14px; line-height: 1.42857; display: block;&quot;&gt;&lt;span style=&quot;box-sizing: border-box; border: 0px solid oklch(0.928 0.006 264.531); margin: 0px; padding: 0px; scrollbar-color: rgb(213, 217, 224) rgba(0, 0, 0, 0); scrollbar-width: thin; color: rgb(28, 29, 31);&quot;&gt;    &lt;/span&gt;&lt;span style=&quot;box-sizing: border-box; border: 0px solid oklch(0.928 0.006 264.531); margin: 0px; padding: 0px; scrollbar-color: rgb(213, 217, 224) rgba(0, 0, 0, 0); scrollbar-width: thin; color: rgb(228, 0, 33);&quot;&gt;int32_t&lt;/span&gt;&lt;span style=&quot;box-sizing: border-box; border: 0px solid oklch(0.928 0.006 264.531); margin: 0px; padding: 0px; scrollbar-color: rgb(213, 217, 224) rgba(0, 0, 0, 0); scrollbar-width: thin; color: rgb(28, 29, 31);&quot;&gt;            result;&lt;/span&gt;&lt;span style=&quot;box-sizing: border-box; border: 0px solid oklch(0.928 0.006 264.531); margin: 0px; padding: 0px; scrollbar-color: rgb(213, 217, 224) rgba(0, 0, 0, 0); scrollbar-width: thin; color: rgb(120, 120, 120);&quot;&gt; // IO 执行完的结果&lt;/span&gt;&#xa;&lt;/span&gt;&lt;/span&gt;&lt;span class=&quot;highlight-line&quot; style=&quot;box-sizing: border-box; border: 0px solid oklch(0.928 0.006 264.531); margin: 0px; padding: 0px; scrollbar-color: rgb(213, 217, 224) rgba(0, 0, 0, 0); scrollbar-width: thin; grid-column: span 2 / span 2; grid-template-columns: subgrid; border-radius: 4px; --tw-ring-shadow: 0 0 0 calc(1px + 0px)transparent; box-shadow: rgba(0, 0, 0, 0) 0px 0px 0px 0px, rgba(0, 0, 0, 0) 0px 0px 0px 0px, rgba(0, 0, 0, 0) 0px 0px 0px 0px, rgba(0, 0, 0, 0) 0px 0px 0px 1px, rgba(0, 0, 0, 0) 0px 0px 0px 0px; --tw-ring-color: transparent; display: grid; position: relative; counter-increment: line 1;&quot;&gt;&lt;span class=&quot;highlight-line-content&quot; style=&quot;box-sizing: border-box; border: 0px solid oklch(0.928 0.006 264.531); margin: 0px 0px 0px 12px; padding: 0px; scrollbar-color: rgb(213, 217, 224) rgba(0, 0, 0, 0); scrollbar-width: thin; font-size: 14px; line-height: 1.42857; display: block;&quot;&gt;&lt;span style=&quot;box-sizing: border-box; border: 0px solid oklch(0.928 0.006 264.531); margin: 0px; padding: 0px; scrollbar-color: rgb(213, 217, 224) rgba(0, 0, 0, 0); scrollbar-width: thin; color: rgb(28, 29, 31);&quot;&gt;    io_type            type;&lt;/span&gt;&lt;span style=&quot;box-sizing: border-box; border: 0px solid oklch(0.928 0.006 264.531); margin: 0px; padding: 0px; scrollbar-color: rgb(213, 217, 224) rgba(0, 0, 0, 0); scrollbar-width: thin; color: rgb(120, 120, 120);&quot;&gt; // IO 类型&lt;/span&gt;&#xa;&lt;/span&gt;&lt;/span&gt;&lt;span class=&quot;highlight-line&quot; style=&quot;box-sizing: border-box; border: 0px solid oklch(0.928 0.006 264.531); margin: 0px; padding: 0px; scrollbar-color: rgb(213, 217, 224) rgba(0, 0, 0, 0); scrollbar-width: thin; grid-column: span 2 / span 2; grid-template-columns: subgrid; border-radius: 4px; --tw-ring-shadow: 0 0 0 calc(1px + 0px)rgb(200 205 213); box-shadow: rgba(0, 0, 0, 0) 0px 0px 0px 0px, rgba(0, 0, 0, 0) 0px 0px 0px 0px, rgba(0, 0, 0, 0) 0px 0px 0px 0px, rgb(200, 205, 213) 0px 0px 0px 1px, rgba(0, 0, 0, 0) 0px 0px 0px 0px; --tw-ring-color: rgb(200 205 213); display: grid; position: relative; counter-increment: line 1; z-index: 1;&quot;&gt;&lt;span class=&quot;highlight-line-content&quot; style=&quot;box-sizing: border-box; border: 0px solid oklch(0.928 0.006 264.531); margin: 0px 0px 0px 12px; padding: 0px; scrollbar-color: rgb(213, 217, 224) rgba(0, 0, 0, 0); scrollbar-width: thin; font-size: 14px; line-height: 1.42857; display: block;&quot;&gt;&lt;span style=&quot;box-sizing: border-box; border: 0px solid oklch(0.928 0.006 264.531); margin: 0px; padding: 0px; scrollbar-color: rgb(213, 217, 224) rgba(0, 0, 0, 0); scrollbar-width: thin; color: rgb(28, 29, 31);&quot;&gt;    &lt;/span&gt;&lt;span style=&quot;box-sizing: border-box; border: 0px solid oklch(0.928 0.006 264.531); margin: 0px; padding: 0px; scrollbar-color: rgb(213, 217, 224) rgba(0, 0, 0, 0); scrollbar-width: thin; color: rgb(228, 0, 33);&quot;&gt;uintptr_t&lt;/span&gt;&lt;span style=&quot;box-sizing: border-box; border: 0px solid oklch(0.928 0.006 264.531); margin: 0px; padding: 0px; scrollbar-color: rgb(213, 217, 224) rgba(0, 0, 0, 0); scrollbar-width: thin; color: rgb(28, 29, 31);&quot;&gt;          data;&lt;/span&gt;&lt;span style=&quot;box-sizing: border-box; border: 0px solid oklch(0.928 0.006 264.531); margin: 0px; padding: 0px; scrollbar-color: rgb(213, 217, 224) rgba(0, 0, 0, 0); scrollbar-width: thin; color: rgb(120, 120, 120);&quot;&gt; // IO 绑定的内存区域&lt;/span&gt;&#xa;&lt;/span&gt;&lt;/span&gt;&lt;span class=&quot;highlight-line&quot; style=&quot;box-sizing: border-box; border: 0px solid oklch(0.928 0.006 264.531); margin: 0px; padding: 0px; scrollbar-color: rgb(213, 217, 224) rgba(0, 0, 0, 0); scrollbar-width: thin; grid-column: span 2 / span 2; grid-template-columns: subgrid; border-radius: 4px; --tw-ring-shadow: 0 0 0 calc(1px + 0px)transparent; box-shadow: rgba(0, 0, 0, 0) 0px 0px 0px 0px, rgba(0, 0, 0, 0) 0px 0px 0px 0px, rgba(0, 0, 0, 0) 0px 0px 0px 0px, rgba(0, 0, 0, 0) 0px 0px 0px 1px, rgba(0, 0, 0, 0) 0px 0px 0px 0px; --tw-ring-color: transparent; display: grid; position: relative; counter-increment: line 1;&quot;&gt;&lt;span class=&quot;highlight-line-content&quot; style=&quot;box-sizing: border-box; border: 0px solid oklch(0.928 0.006 264.531); margin: 0px 0px 0px 12px; padding: 0px; scrollbar-color: rgb(213, 217, 224) rgba(0, 0, 0, 0); scrollbar-width: thin; font-size: 14px; line-height: 1.42857; display: block;&quot;&gt;&lt;span style=&quot;box-sizing: border-box; border: 0px solid oklch(0.928 0.006 264.531); margin: 0px; padding: 0px; scrollbar-color: rgb(213, 217, 224) rgba(0, 0, 0, 0); scrollbar-width: thin; color: rgb(28, 29, 31);&quot;&gt;    cb_type            cb;&lt;/span&gt;&lt;span style=&quot;box-sizing: border-box; border: 0px solid oklch(0.928 0.006 264.531); margin: 0px; padding: 0px; scrollbar-color: rgb(213, 217, 224) rgba(0, 0, 0, 0); scrollbar-width: thin; color: rgb(120, 120, 120);&quot;&gt; // IO 绑定的回调函数&lt;/span&gt;&#xa;&lt;/span&gt;&lt;/span&gt;&lt;span class=&quot;highlight-line&quot; style=&quot;box-sizing: border-box; border: 0px solid oklch(0.928 0.006 264.531); margin: 0px; padding: 0px; scrollbar-color: rgb(213, 217, 224) rgba(0, 0, 0, 0); scrollbar-width: thin; grid-column: span 2 / span 2; grid-template-columns: subgrid; border-radius: 4px; --tw-ring-shadow: 0 0 0 calc(1px + 0px)transparent; box-shadow: rgba(0, 0, 0, 0) 0px 0px 0px 0px, rgba(0, 0, 0, 0) 0px 0px 0px 0px, rgba(0, 0, 0, 0) 0px 0px 0px 0px, rgba(0, 0, 0, 0) 0px 0px 0px 1px, rgba(0, 0, 0, 0) 0px 0px 0px 0px; --tw-ring-color: transparent; display: grid; position: relative; counter-increment: line 1;&quot;&gt;&lt;span class=&quot;highlight-line-content&quot; style=&quot;box-sizing: border-box; border: 0px solid oklch(0.928 0.006 264.531); margin: 0px 0px 0px 12px; padding: 0px; scrollbar-color: rgb(213, 217, 224) rgba(0, 0, 0, 0); scrollbar-width: thin; font-size: 14px; line-height: 1.42857; display: block;&quot;&gt;&lt;span style=&quot;box-sizing: border-box; border: 0px solid oklch(0.928 0.006 264.531); margin: 0px; padding: 0px; scrollbar-color: rgb(213, 217, 224) rgba(0, 0, 0, 0); scrollbar-width: thin; color: rgb(28, 29, 31);&quot;&gt;};&lt;/span&gt;&lt;/span&gt;&lt;/span&gt;&lt;/code&gt;&lt;/pre&gt;" link="&lt;pre class=&quot;relative overflow-auto border border-tint-subtle bg-tint-subtle theme-muted:bg-tint-base p-2 [grid-area:2/1] contrast-more:border-tint contrast-more:bg-tint-base [html.theme-bold.sidebar-filled_&amp;amp;]:bg-tint-base rounded-md straight-corners:rounded-xs shadow-xs&quot; style=&quot;box-sizing: border-box; border: 1px solid rgb(226, 230, 236); margin: 0px; padding: 8px; scrollbar-color: rgb(213, 217, 224) rgba(0, 0, 0, 0); scrollbar-width: thin; font-family: &amp;quot;IBM Plex Mono&amp;quot;, monospace; font-feature-settings: normal; font-variation-settings: normal; font-size: medium; -webkit-font-smoothing: auto; position: relative; overflow: auto; border-radius: 6px; background-color: rgb(249, 250, 251); box-shadow: rgba(0, 0, 0, 0) 0px 0px 0px 0px, rgba(0, 0, 0, 0) 0px 0px 0px 0px, rgba(0, 0, 0, 0) 0px 0px 0px 0px, rgba(0, 0, 0, 0) 0px 0px 0px 0px, rgba(0, 0, 0, 0.05) 0px 1px 2px 0px; --tw-shadow: 0 1px 2px 0 #0000000d; grid-area: 2 / 1; color: rgb(28, 29, 31); font-style: normal; font-variant-ligatures: normal; font-variant-caps: normal; font-weight: 400; letter-spacing: normal; orphans: 2; text-align: start; text-indent: 0px; text-transform: none; widows: 2; word-spacing: 0px; -webkit-text-stroke-width: 0px; text-decoration-thickness: initial; text-decoration-style: initial; text-decoration-color: initial;&quot;&gt;&lt;code id=&quot;:S1:&quot; class=&quot;inline-grid min-w-full grid-cols-[auto_1fr] [count-reset:line] print:whitespace-pre-wrap&quot; style=&quot;box-sizing: border-box; border: 0px solid oklch(0.928 0.006 264.531); margin: 0px; padding: 0px; scrollbar-color: rgb(213, 217, 224) rgba(0, 0, 0, 0); scrollbar-width: thin; font-family: &amp;quot;IBM Plex Mono&amp;quot;, monospace; font-feature-settings: normal; font-variation-settings: normal; font-size: 1em; -webkit-font-smoothing: auto; display: inline-grid; min-width: 100%; grid-template-columns: auto 1fr;&quot;&gt;&lt;span class=&quot;highlight-line&quot; style=&quot;box-sizing: border-box; border: 0px solid oklch(0.928 0.006 264.531); margin: 0px; padding: 0px; scrollbar-color: rgb(213, 217, 224) rgba(0, 0, 0, 0); scrollbar-width: thin; grid-column: span 2 / span 2; grid-template-columns: subgrid; border-radius: 4px; --tw-ring-shadow: 0 0 0 calc(1px + 0px)transparent; box-shadow: rgba(0, 0, 0, 0) 0px 0px 0px 0px, rgba(0, 0, 0, 0) 0px 0px 0px 0px, rgba(0, 0, 0, 0) 0px 0px 0px 0px, rgba(0, 0, 0, 0) 0px 0px 0px 1px, rgba(0, 0, 0, 0) 0px 0px 0px 0px; --tw-ring-color: transparent; display: grid; position: relative; counter-increment: line 1;&quot;&gt;&lt;span class=&quot;highlight-line-content&quot; style=&quot;box-sizing: border-box; border: 0px solid oklch(0.928 0.006 264.531); margin: 0px 0px 0px 12px; padding: 0px; scrollbar-color: rgb(213, 217, 224) rgba(0, 0, 0, 0); scrollbar-width: thin; font-size: 14px; line-height: 1.42857; display: block;&quot;&gt;&lt;span style=&quot;box-sizing: border-box; border: 0px solid oklch(0.928 0.006 264.531); margin: 0px; padding: 0px; scrollbar-color: rgb(213, 217, 224) rgba(0, 0, 0, 0); scrollbar-width: thin; color: rgb(228, 0, 33);&quot;&gt;struct&lt;/span&gt;&lt;span style=&quot;box-sizing: border-box; border: 0px solid oklch(0.928 0.006 264.531); margin: 0px; padding: 0px; scrollbar-color: rgb(213, 217, 224) rgba(0, 0, 0, 0); scrollbar-width: thin; color: rgb(28, 29, 31);&quot;&gt; &lt;/span&gt;&lt;span style=&quot;box-sizing: border-box; border: 0px solid oklch(0.928 0.006 264.531); margin: 0px; padding: 0px; scrollbar-color: rgb(213, 217, 224) rgba(0, 0, 0, 0); scrollbar-width: thin; color: rgb(57, 115, 225);&quot;&gt;io_info&lt;/span&gt;&#xa;&lt;/span&gt;&lt;/span&gt;&lt;span class=&quot;highlight-line&quot; style=&quot;box-sizing: border-box; border: 0px solid oklch(0.928 0.006 264.531); margin: 0px; padding: 0px; scrollbar-color: rgb(213, 217, 224) rgba(0, 0, 0, 0); scrollbar-width: thin; grid-column: span 2 / span 2; grid-template-columns: subgrid; border-radius: 4px; --tw-ring-shadow: 0 0 0 calc(1px + 0px)transparent; box-shadow: rgba(0, 0, 0, 0) 0px 0px 0px 0px, rgba(0, 0, 0, 0) 0px 0px 0px 0px, rgba(0, 0, 0, 0) 0px 0px 0px 0px, rgba(0, 0, 0, 0) 0px 0px 0px 1px, rgba(0, 0, 0, 0) 0px 0px 0px 0px; --tw-ring-color: transparent; display: grid; position: relative; counter-increment: line 1;&quot;&gt;&lt;span class=&quot;highlight-line-content&quot; style=&quot;box-sizing: border-box; border: 0px solid oklch(0.928 0.006 264.531); margin: 0px 0px 0px 12px; padding: 0px; scrollbar-color: rgb(213, 217, 224) rgba(0, 0, 0, 0); scrollbar-width: thin; font-size: 14px; line-height: 1.42857; display: block;&quot;&gt;&lt;span style=&quot;box-sizing: border-box; border: 0px solid oklch(0.928 0.006 264.531); margin: 0px; padding: 0px; scrollbar-color: rgb(213, 217, 224) rgba(0, 0, 0, 0); scrollbar-width: thin; color: rgb(28, 29, 31);&quot;&gt;{&lt;/span&gt;&#xa;&lt;/span&gt;&lt;/span&gt;&lt;span class=&quot;highlight-line&quot; style=&quot;box-sizing: border-box; border: 0px solid oklch(0.928 0.006 264.531); margin: 0px; padding: 0px; scrollbar-color: rgb(213, 217, 224) rgba(0, 0, 0, 0); scrollbar-width: thin; grid-column: span 2 / span 2; grid-template-columns: subgrid; border-radius: 4px; --tw-ring-shadow: 0 0 0 calc(1px + 0px)transparent; box-shadow: rgba(0, 0, 0, 0) 0px 0px 0px 0px, rgba(0, 0, 0, 0) 0px 0px 0px 0px, rgba(0, 0, 0, 0) 0px 0px 0px 0px, rgba(0, 0, 0, 0) 0px 0px 0px 1px, rgba(0, 0, 0, 0) 0px 0px 0px 0px; --tw-ring-color: transparent; display: grid; position: relative; counter-increment: line 1;&quot;&gt;&lt;span class=&quot;highlight-line-content&quot; style=&quot;box-sizing: border-box; border: 0px solid oklch(0.928 0.006 264.531); margin: 0px 0px 0px 12px; padding: 0px; scrollbar-color: rgb(213, 217, 224) rgba(0, 0, 0, 0); scrollbar-width: thin; font-size: 14px; line-height: 1.42857; display: block;&quot;&gt;&lt;span style=&quot;box-sizing: border-box; border: 0px solid oklch(0.928 0.006 264.531); margin: 0px; padding: 0px; scrollbar-color: rgb(213, 217, 224) rgba(0, 0, 0, 0); scrollbar-width: thin; color: rgb(28, 29, 31);&quot;&gt;    coroutine_handle&lt;/span&gt;&lt;span style=&quot;box-sizing: border-box; border: 0px solid oklch(0.928 0.006 264.531); margin: 0px; padding: 0px; scrollbar-color: rgb(213, 217, 224) rgba(0, 0, 0, 0); scrollbar-width: thin; color: rgb(228, 0, 33);&quot;&gt;&amp;lt;&amp;gt;&lt;/span&gt;&lt;span style=&quot;box-sizing: border-box; border: 0px solid oklch(0.928 0.006 264.531); margin: 0px; padding: 0px; scrollbar-color: rgb(213, 217, 224) rgba(0, 0, 0, 0); scrollbar-width: thin; color: rgb(28, 29, 31);&quot;&gt; handle;&lt;/span&gt;&lt;span style=&quot;box-sizing: border-box; border: 0px solid oklch(0.928 0.006 264.531); margin: 0px; padding: 0px; scrollbar-color: rgb(213, 217, 224) rgba(0, 0, 0, 0); scrollbar-width: thin; color: rgb(120, 120, 120);&quot;&gt; // IO 绑定的协程句柄&lt;/span&gt;&#xa;&lt;/span&gt;&lt;/span&gt;&lt;span class=&quot;highlight-line&quot; style=&quot;box-sizing: border-box; border: 0px solid oklch(0.928 0.006 264.531); margin: 0px; padding: 0px; scrollbar-color: rgb(213, 217, 224) rgba(0, 0, 0, 0); scrollbar-width: thin; grid-column: span 2 / span 2; grid-template-columns: subgrid; border-radius: 4px; --tw-ring-shadow: 0 0 0 calc(1px + 0px)transparent; box-shadow: rgba(0, 0, 0, 0) 0px 0px 0px 0px, rgba(0, 0, 0, 0) 0px 0px 0px 0px, rgba(0, 0, 0, 0) 0px 0px 0px 0px, rgba(0, 0, 0, 0) 0px 0px 0px 1px, rgba(0, 0, 0, 0) 0px 0px 0px 0px; --tw-ring-color: transparent; display: grid; position: relative; counter-increment: line 1;&quot;&gt;&lt;span class=&quot;highlight-line-content&quot; style=&quot;box-sizing: border-box; border: 0px solid oklch(0.928 0.006 264.531); margin: 0px 0px 0px 12px; padding: 0px; scrollbar-color: rgb(213, 217, 224) rgba(0, 0, 0, 0); scrollbar-width: thin; font-size: 14px; line-height: 1.42857; display: block;&quot;&gt;&lt;span style=&quot;box-sizing: border-box; border: 0px solid oklch(0.928 0.006 264.531); margin: 0px; padding: 0px; scrollbar-color: rgb(213, 217, 224) rgba(0, 0, 0, 0); scrollbar-width: thin; color: rgb(28, 29, 31);&quot;&gt;    &lt;/span&gt;&lt;span style=&quot;box-sizing: border-box; border: 0px solid oklch(0.928 0.006 264.531); margin: 0px; padding: 0px; scrollbar-color: rgb(213, 217, 224) rgba(0, 0, 0, 0); scrollbar-width: thin; color: rgb(228, 0, 33);&quot;&gt;int32_t&lt;/span&gt;&lt;span style=&quot;box-sizing: border-box; border: 0px solid oklch(0.928 0.006 264.531); margin: 0px; padding: 0px; scrollbar-color: rgb(213, 217, 224) rgba(0, 0, 0, 0); scrollbar-width: thin; color: rgb(28, 29, 31);&quot;&gt;            result;&lt;/span&gt;&lt;span style=&quot;box-sizing: border-box; border: 0px solid oklch(0.928 0.006 264.531); margin: 0px; padding: 0px; scrollbar-color: rgb(213, 217, 224) rgba(0, 0, 0, 0); scrollbar-width: thin; color: rgb(120, 120, 120);&quot;&gt; // IO 执行完的结果&lt;/span&gt;&#xa;&lt;/span&gt;&lt;/span&gt;&lt;span class=&quot;highlight-line&quot; style=&quot;box-sizing: border-box; border: 0px solid oklch(0.928 0.006 264.531); margin: 0px; padding: 0px; scrollbar-color: rgb(213, 217, 224) rgba(0, 0, 0, 0); scrollbar-width: thin; grid-column: span 2 / span 2; grid-template-columns: subgrid; border-radius: 4px; --tw-ring-shadow: 0 0 0 calc(1px + 0px)transparent; box-shadow: rgba(0, 0, 0, 0) 0px 0px 0px 0px, rgba(0, 0, 0, 0) 0px 0px 0px 0px, rgba(0, 0, 0, 0) 0px 0px 0px 0px, rgba(0, 0, 0, 0) 0px 0px 0px 1px, rgba(0, 0, 0, 0) 0px 0px 0px 0px; --tw-ring-color: transparent; display: grid; position: relative; counter-increment: line 1;&quot;&gt;&lt;span class=&quot;highlight-line-content&quot; style=&quot;box-sizing: border-box; border: 0px solid oklch(0.928 0.006 264.531); margin: 0px 0px 0px 12px; padding: 0px; scrollbar-color: rgb(213, 217, 224) rgba(0, 0, 0, 0); scrollbar-width: thin; font-size: 14px; line-height: 1.42857; display: block;&quot;&gt;&lt;span style=&quot;box-sizing: border-box; border: 0px solid oklch(0.928 0.006 264.531); margin: 0px; padding: 0px; scrollbar-color: rgb(213, 217, 224) rgba(0, 0, 0, 0); scrollbar-width: thin; color: rgb(28, 29, 31);&quot;&gt;    io_type            type;&lt;/span&gt;&lt;span style=&quot;box-sizing: border-box; border: 0px solid oklch(0.928 0.006 264.531); margin: 0px; padding: 0px; scrollbar-color: rgb(213, 217, 224) rgba(0, 0, 0, 0); scrollbar-width: thin; color: rgb(120, 120, 120);&quot;&gt; // IO 类型&lt;/span&gt;&#xa;&lt;/span&gt;&lt;/span&gt;&lt;span class=&quot;highlight-line&quot; style=&quot;box-sizing: border-box; border: 0px solid oklch(0.928 0.006 264.531); margin: 0px; padding: 0px; scrollbar-color: rgb(213, 217, 224) rgba(0, 0, 0, 0); scrollbar-width: thin; grid-column: span 2 / span 2; grid-template-columns: subgrid; border-radius: 4px; --tw-ring-shadow: 0 0 0 calc(1px + 0px)rgb(200 205 213); box-shadow: rgba(0, 0, 0, 0) 0px 0px 0px 0px, rgba(0, 0, 0, 0) 0px 0px 0px 0px, rgba(0, 0, 0, 0) 0px 0px 0px 0px, rgb(200, 205, 213) 0px 0px 0px 1px, rgba(0, 0, 0, 0) 0px 0px 0px 0px; --tw-ring-color: rgb(200 205 213); display: grid; position: relative; counter-increment: line 1; z-index: 1;&quot;&gt;&lt;span class=&quot;highlight-line-content&quot; style=&quot;box-sizing: border-box; border: 0px solid oklch(0.928 0.006 264.531); margin: 0px 0px 0px 12px; padding: 0px; scrollbar-color: rgb(213, 217, 224) rgba(0, 0, 0, 0); scrollbar-width: thin; font-size: 14px; line-height: 1.42857; display: block;&quot;&gt;&lt;span style=&quot;box-sizing: border-box; border: 0px solid oklch(0.928 0.006 264.531); margin: 0px; padding: 0px; scrollbar-color: rgb(213, 217, 224) rgba(0, 0, 0, 0); scrollbar-width: thin; color: rgb(28, 29, 31);&quot;&gt;    &lt;/span&gt;&lt;span style=&quot;box-sizing: border-box; border: 0px solid oklch(0.928 0.006 264.531); margin: 0px; padding: 0px; scrollbar-color: rgb(213, 217, 224) rgba(0, 0, 0, 0); scrollbar-width: thin; color: rgb(228, 0, 33);&quot;&gt;uintptr_t&lt;/span&gt;&lt;span style=&quot;box-sizing: border-box; border: 0px solid oklch(0.928 0.006 264.531); margin: 0px; padding: 0px; scrollbar-color: rgb(213, 217, 224) rgba(0, 0, 0, 0); scrollbar-width: thin; color: rgb(28, 29, 31);&quot;&gt;          data;&lt;/span&gt;&lt;span style=&quot;box-sizing: border-box; border: 0px solid oklch(0.928 0.006 264.531); margin: 0px; padding: 0px; scrollbar-color: rgb(213, 217, 224) rgba(0, 0, 0, 0); scrollbar-width: thin; color: rgb(120, 120, 120);&quot;&gt; // IO 绑定的内存区域&lt;/span&gt;&#xa;&lt;/span&gt;&lt;/span&gt;&lt;span class=&quot;highlight-line&quot; style=&quot;box-sizing: border-box; border: 0px solid oklch(0.928 0.006 264.531); margin: 0px; padding: 0px; scrollbar-color: rgb(213, 217, 224) rgba(0, 0, 0, 0); scrollbar-width: thin; grid-column: span 2 / span 2; grid-template-columns: subgrid; border-radius: 4px; --tw-ring-shadow: 0 0 0 calc(1px + 0px)transparent; box-shadow: rgba(0, 0, 0, 0) 0px 0px 0px 0px, rgba(0, 0, 0, 0) 0px 0px 0px 0px, rgba(0, 0, 0, 0) 0px 0px 0px 0px, rgba(0, 0, 0, 0) 0px 0px 0px 1px, rgba(0, 0, 0, 0) 0px 0px 0px 0px; --tw-ring-color: transparent; display: grid; position: relative; counter-increment: line 1;&quot;&gt;&lt;span class=&quot;highlight-line-content&quot; style=&quot;box-sizing: border-box; border: 0px solid oklch(0.928 0.006 264.531); margin: 0px 0px 0px 12px; padding: 0px; scrollbar-color: rgb(213, 217, 224) rgba(0, 0, 0, 0); scrollbar-width: thin; font-size: 14px; line-height: 1.42857; display: block;&quot;&gt;&lt;span style=&quot;box-sizing: border-box; border: 0px solid oklch(0.928 0.006 264.531); margin: 0px; padding: 0px; scrollbar-color: rgb(213, 217, 224) rgba(0, 0, 0, 0); scrollbar-width: thin; color: rgb(28, 29, 31);&quot;&gt;    cb_type            cb;&lt;/span&gt;&lt;span style=&quot;box-sizing: border-box; border: 0px solid oklch(0.928 0.006 264.531); margin: 0px; padding: 0px; scrollbar-color: rgb(213, 217, 224) rgba(0, 0, 0, 0); scrollbar-width: thin; color: rgb(120, 120, 120);&quot;&gt; // IO 绑定的回调函数&lt;/span&gt;&#xa;&lt;/span&gt;&lt;/span&gt;&lt;span class=&quot;highlight-line&quot; style=&quot;box-sizing: border-box; border: 0px solid oklch(0.928 0.006 264.531); margin: 0px; padding: 0px; scrollbar-color: rgb(213, 217, 224) rgba(0, 0, 0, 0); scrollbar-width: thin; grid-column: span 2 / span 2; grid-template-columns: subgrid; border-radius: 4px; --tw-ring-shadow: 0 0 0 calc(1px + 0px)transparent; box-shadow: rgba(0, 0, 0, 0) 0px 0px 0px 0px, rgba(0, 0, 0, 0) 0px 0px 0px 0px, rgba(0, 0, 0, 0) 0px 0px 0px 0px, rgba(0, 0, 0, 0) 0px 0px 0px 1px, rgba(0, 0, 0, 0) 0px 0px 0px 0px; --tw-ring-color: transparent; display: grid; position: relative; counter-increment: line 1;&quot;&gt;&lt;span class=&quot;highlight-line-content&quot; style=&quot;box-sizing: border-box; border: 0px solid oklch(0.928 0.006 264.531); margin: 0px 0px 0px 12px; padding: 0px; scrollbar-color: rgb(213, 217, 224) rgba(0, 0, 0, 0); scrollbar-width: thin; font-size: 14px; line-height: 1.42857; display: block;&quot;&gt;&lt;span style=&quot;box-sizing: border-box; border: 0px solid oklch(0.928 0.006 264.531); margin: 0px; padding: 0px; scrollbar-color: rgb(213, 217, 224) rgba(0, 0, 0, 0); scrollbar-width: thin; color: rgb(28, 29, 31);&quot;&gt;};&lt;/span&gt;&lt;/span&gt;&lt;/span&gt;&lt;/code&gt;&lt;/pre&gt;" id="gBoSZ08GJuo9Bw_5KC7_-5">
          <mxCell style="text;whiteSpace=wrap;html=1;sketch=1;curveFitting=1;jiggle=2;" parent="1" vertex="1">
            <mxGeometry x="40" y="20" width="420" height="200" as="geometry" />
          </mxCell>
        </UserObject>
        <UserObject label="&lt;pre class=&quot;relative overflow-auto border border-tint-subtle bg-tint-subtle theme-muted:bg-tint-base p-2 [grid-area:2/1] contrast-more:border-tint contrast-more:bg-tint-base [html.theme-bold.sidebar-filled_&amp;amp;]:bg-tint-base rounded-md straight-corners:rounded-xs shadow-xs&quot; style=&quot;box-sizing: border-box; border: 1px solid rgb(226, 230, 236); margin: 0px; padding: 8px; scrollbar-color: rgb(213, 217, 224) rgba(0, 0, 0, 0); scrollbar-width: thin; font-family: &amp;quot;IBM Plex Mono&amp;quot;, monospace; font-feature-settings: normal; font-variation-settings: normal; font-size: medium; -webkit-font-smoothing: auto; position: relative; overflow: auto; border-radius: 6px; background-color: rgb(249, 250, 251); box-shadow: rgba(0, 0, 0, 0) 0px 0px 0px 0px, rgba(0, 0, 0, 0) 0px 0px 0px 0px, rgba(0, 0, 0, 0) 0px 0px 0px 0px, rgba(0, 0, 0, 0) 0px 0px 0px 0px, rgba(0, 0, 0, 0.05) 0px 1px 2px 0px; --tw-shadow: 0 1px 2px 0 #0000000d; grid-area: 2 / 1; color: rgb(28, 29, 31); font-style: normal; font-variant-ligatures: normal; font-variant-caps: normal; font-weight: 400; letter-spacing: normal; orphans: 2; text-align: start; text-indent: 0px; text-transform: none; widows: 2; word-spacing: 0px; -webkit-text-stroke-width: 0px; text-decoration-thickness: initial; text-decoration-style: initial; text-decoration-color: initial;&quot;&gt;&lt;code id=&quot;:S1:&quot; class=&quot;inline-grid min-w-full grid-cols-[auto_1fr] [count-reset:line] print:whitespace-pre-wrap&quot; style=&quot;box-sizing: border-box; border: 0px solid oklch(0.928 0.006 264.531); margin: 0px; padding: 0px; scrollbar-color: rgb(213, 217, 224) rgba(0, 0, 0, 0); scrollbar-width: thin; font-family: &amp;quot;IBM Plex Mono&amp;quot;, monospace; font-feature-settings: normal; font-variation-settings: normal; font-size: 1em; -webkit-font-smoothing: auto; display: inline-grid; min-width: 100%; grid-template-columns: auto 1fr;&quot;&gt;&lt;span class=&quot;highlight-line&quot; style=&quot;box-sizing: border-box; border: 0px solid oklch(0.928 0.006 264.531); margin: 0px; padding: 0px; scrollbar-color: rgb(213, 217, 224) rgba(0, 0, 0, 0); scrollbar-width: thin; grid-column: span 2 / span 2; grid-template-columns: subgrid; border-radius: 4px; --tw-ring-shadow: 0 0 0 calc(1px + 0px)transparent; box-shadow: rgba(0, 0, 0, 0) 0px 0px 0px 0px, rgba(0, 0, 0, 0) 0px 0px 0px 0px, rgba(0, 0, 0, 0) 0px 0px 0px 0px, rgba(0, 0, 0, 0) 0px 0px 0px 1px, rgba(0, 0, 0, 0) 0px 0px 0px 0px; --tw-ring-color: transparent; display: grid; position: relative; counter-increment: line 1;&quot;&gt;&lt;span class=&quot;highlight-line-content&quot; style=&quot;box-sizing: border-box; border: 0px solid oklch(0.928 0.006 264.531); margin: 0px 0px 0px 12px; padding: 0px; scrollbar-color: rgb(213, 217, 224) rgba(0, 0, 0, 0); scrollbar-width: thin; font-size: 14px; line-height: 1.42857; display: block;&quot;&gt;&lt;span style=&quot;font-family: Inter, &amp;quot;Inter Fallback&amp;quot;, system-ui, arial; font-size: medium; text-wrap-mode: wrap; background-color: rgb(255, 255, 255);&quot;&gt;用户发起的异步 IO 均是通过在 C++ 协程的 awaiter 中发起的，&lt;/span&gt;&lt;code style=&quot;box-sizing: border-box; border: 0px solid oklch(0.928 0.006 264.531); margin: 0px; padding: 0px; scrollbar-color: rgb(213, 217, 224) rgba(0, 0, 0, 0); scrollbar-width: thin; font-family: &amp;quot;IBM Plex Mono&amp;quot;, monospace; font-feature-settings: normal; font-variation-settings: normal; font-size: 0.875em; -webkit-font-smoothing: auto; min-width: 26px; align-items: center; justify-content: center; border-radius: 4px; background-color: rgb(246, 247, 250); padding-inline: 6px; padding-block: 1px; --tw-leading: calc(max(1.2em,1.25rem)); line-height: max(1.2em, 1.25rem); --tw-ring-shadow: inset/**/0 0 0 calc(1px + 0px)rgb(213 217 224); box-shadow: rgba(0, 0, 0, 0) 0px 0px 0px 0px, rgba(0, 0, 0, 0) 0px 0px 0px 0px, rgba(0, 0, 0, 0) 0px 0px 0px 0px, rgb(213, 217, 224) 0px 0px 0px 1px inset, rgba(0, 0, 0, 0) 0px 0px 0px 0px; --tw-ring-color: rgb(213 217 224); --tw-ring-inset: inset; text-wrap-mode: wrap;&quot; class=&quot;py-px px-1.5 min-w-6.5 justify-center items-center ring-1 ring-inset ring-tint bg-tint rounded-sm text-[.875em] leading-[calc(max(1.20em,1.25rem))]&quot;&gt;base_io_awaiter&lt;/code&gt;&lt;span style=&quot;font-family: Inter, &amp;quot;Inter Fallback&amp;quot;, system-ui, arial; font-size: medium; text-wrap-mode: wrap; background-color: rgb(255, 255, 255);&quot;&gt;为所有 IO 相关的 awaiter 提供了一个基类并实现了 awaiter 的全部调度逻辑&lt;/span&gt;&lt;/span&gt;&lt;/span&gt;&lt;/code&gt;&lt;/pre&gt;" link="&lt;pre class=&quot;relative overflow-auto border border-tint-subtle bg-tint-subtle theme-muted:bg-tint-base p-2 [grid-area:2/1] contrast-more:border-tint contrast-more:bg-tint-base [html.theme-bold.sidebar-filled_&amp;amp;]:bg-tint-base rounded-md straight-corners:rounded-xs shadow-xs&quot; style=&quot;box-sizing: border-box; border: 1px solid rgb(226, 230, 236); margin: 0px; padding: 8px; scrollbar-color: rgb(213, 217, 224) rgba(0, 0, 0, 0); scrollbar-width: thin; font-family: &amp;quot;IBM Plex Mono&amp;quot;, monospace; font-feature-settings: normal; font-variation-settings: normal; font-size: medium; -webkit-font-smoothing: auto; position: relative; overflow: auto; border-radius: 6px; background-color: rgb(249, 250, 251); box-shadow: rgba(0, 0, 0, 0) 0px 0px 0px 0px, rgba(0, 0, 0, 0) 0px 0px 0px 0px, rgba(0, 0, 0, 0) 0px 0px 0px 0px, rgba(0, 0, 0, 0) 0px 0px 0px 0px, rgba(0, 0, 0, 0.05) 0px 1px 2px 0px; --tw-shadow: 0 1px 2px 0 #0000000d; grid-area: 2 / 1; color: rgb(28, 29, 31); font-style: normal; font-variant-ligatures: normal; font-variant-caps: normal; font-weight: 400; letter-spacing: normal; orphans: 2; text-align: start; text-indent: 0px; text-transform: none; widows: 2; word-spacing: 0px; -webkit-text-stroke-width: 0px; text-decoration-thickness: initial; text-decoration-style: initial; text-decoration-color: initial;&quot;&gt;&lt;code id=&quot;:S1:&quot; class=&quot;inline-grid min-w-full grid-cols-[auto_1fr] [count-reset:line] print:whitespace-pre-wrap&quot; style=&quot;box-sizing: border-box; border: 0px solid oklch(0.928 0.006 264.531); margin: 0px; padding: 0px; scrollbar-color: rgb(213, 217, 224) rgba(0, 0, 0, 0); scrollbar-width: thin; font-family: &amp;quot;IBM Plex Mono&amp;quot;, monospace; font-feature-settings: normal; font-variation-settings: normal; font-size: 1em; -webkit-font-smoothing: auto; display: inline-grid; min-width: 100%; grid-template-columns: auto 1fr;&quot;&gt;&lt;span class=&quot;highlight-line&quot; style=&quot;box-sizing: border-box; border: 0px solid oklch(0.928 0.006 264.531); margin: 0px; padding: 0px; scrollbar-color: rgb(213, 217, 224) rgba(0, 0, 0, 0); scrollbar-width: thin; grid-column: span 2 / span 2; grid-template-columns: subgrid; border-radius: 4px; --tw-ring-shadow: 0 0 0 calc(1px + 0px)transparent; box-shadow: rgba(0, 0, 0, 0) 0px 0px 0px 0px, rgba(0, 0, 0, 0) 0px 0px 0px 0px, rgba(0, 0, 0, 0) 0px 0px 0px 0px, rgba(0, 0, 0, 0) 0px 0px 0px 1px, rgba(0, 0, 0, 0) 0px 0px 0px 0px; --tw-ring-color: transparent; display: grid; position: relative; counter-increment: line 1;&quot;&gt;&lt;span class=&quot;highlight-line-content&quot; style=&quot;box-sizing: border-box; border: 0px solid oklch(0.928 0.006 264.531); margin: 0px 0px 0px 12px; padding: 0px; scrollbar-color: rgb(213, 217, 224) rgba(0, 0, 0, 0); scrollbar-width: thin; font-size: 14px; line-height: 1.42857; display: block;&quot;&gt;&lt;span style=&quot;box-sizing: border-box; border: 0px solid oklch(0.928 0.006 264.531); margin: 0px; padding: 0px; scrollbar-color: rgb(213, 217, 224) rgba(0, 0, 0, 0); scrollbar-width: thin; color: rgb(228, 0, 33);&quot;&gt;struct&lt;/span&gt;&lt;span style=&quot;box-sizing: border-box; border: 0px solid oklch(0.928 0.006 264.531); margin: 0px; padding: 0px; scrollbar-color: rgb(213, 217, 224) rgba(0, 0, 0, 0); scrollbar-width: thin; color: rgb(28, 29, 31);&quot;&gt; &lt;/span&gt;&lt;span style=&quot;box-sizing: border-box; border: 0px solid oklch(0.928 0.006 264.531); margin: 0px; padding: 0px; scrollbar-color: rgb(213, 217, 224) rgba(0, 0, 0, 0); scrollbar-width: thin; color: rgb(57, 115, 225);&quot;&gt;io_info&lt;/span&gt;&#xa;&lt;/span&gt;&lt;/span&gt;&lt;span class=&quot;highlight-line&quot; style=&quot;box-sizing: border-box; border: 0px solid oklch(0.928 0.006 264.531); margin: 0px; padding: 0px; scrollbar-color: rgb(213, 217, 224) rgba(0, 0, 0, 0); scrollbar-width: thin; grid-column: span 2 / span 2; grid-template-columns: subgrid; border-radius: 4px; --tw-ring-shadow: 0 0 0 calc(1px + 0px)transparent; box-shadow: rgba(0, 0, 0, 0) 0px 0px 0px 0px, rgba(0, 0, 0, 0) 0px 0px 0px 0px, rgba(0, 0, 0, 0) 0px 0px 0px 0px, rgba(0, 0, 0, 0) 0px 0px 0px 1px, rgba(0, 0, 0, 0) 0px 0px 0px 0px; --tw-ring-color: transparent; display: grid; position: relative; counter-increment: line 1;&quot;&gt;&lt;span class=&quot;highlight-line-content&quot; style=&quot;box-sizing: border-box; border: 0px solid oklch(0.928 0.006 264.531); margin: 0px 0px 0px 12px; padding: 0px; scrollbar-color: rgb(213, 217, 224) rgba(0, 0, 0, 0); scrollbar-width: thin; font-size: 14px; line-height: 1.42857; display: block;&quot;&gt;&lt;span style=&quot;box-sizing: border-box; border: 0px solid oklch(0.928 0.006 264.531); margin: 0px; padding: 0px; scrollbar-color: rgb(213, 217, 224) rgba(0, 0, 0, 0); scrollbar-width: thin; color: rgb(28, 29, 31);&quot;&gt;{&lt;/span&gt;&#xa;&lt;/span&gt;&lt;/span&gt;&lt;span class=&quot;highlight-line&quot; style=&quot;box-sizing: border-box; border: 0px solid oklch(0.928 0.006 264.531); margin: 0px; padding: 0px; scrollbar-color: rgb(213, 217, 224) rgba(0, 0, 0, 0); scrollbar-width: thin; grid-column: span 2 / span 2; grid-template-columns: subgrid; border-radius: 4px; --tw-ring-shadow: 0 0 0 calc(1px + 0px)transparent; box-shadow: rgba(0, 0, 0, 0) 0px 0px 0px 0px, rgba(0, 0, 0, 0) 0px 0px 0px 0px, rgba(0, 0, 0, 0) 0px 0px 0px 0px, rgba(0, 0, 0, 0) 0px 0px 0px 1px, rgba(0, 0, 0, 0) 0px 0px 0px 0px; --tw-ring-color: transparent; display: grid; position: relative; counter-increment: line 1;&quot;&gt;&lt;span class=&quot;highlight-line-content&quot; style=&quot;box-sizing: border-box; border: 0px solid oklch(0.928 0.006 264.531); margin: 0px 0px 0px 12px; padding: 0px; scrollbar-color: rgb(213, 217, 224) rgba(0, 0, 0, 0); scrollbar-width: thin; font-size: 14px; line-height: 1.42857; display: block;&quot;&gt;&lt;span style=&quot;box-sizing: border-box; border: 0px solid oklch(0.928 0.006 264.531); margin: 0px; padding: 0px; scrollbar-color: rgb(213, 217, 224) rgba(0, 0, 0, 0); scrollbar-width: thin; color: rgb(28, 29, 31);&quot;&gt;    coroutine_handle&lt;/span&gt;&lt;span style=&quot;box-sizing: border-box; border: 0px solid oklch(0.928 0.006 264.531); margin: 0px; padding: 0px; scrollbar-color: rgb(213, 217, 224) rgba(0, 0, 0, 0); scrollbar-width: thin; color: rgb(228, 0, 33);&quot;&gt;&amp;lt;&amp;gt;&lt;/span&gt;&lt;span style=&quot;box-sizing: border-box; border: 0px solid oklch(0.928 0.006 264.531); margin: 0px; padding: 0px; scrollbar-color: rgb(213, 217, 224) rgba(0, 0, 0, 0); scrollbar-width: thin; color: rgb(28, 29, 31);&quot;&gt; handle;&lt;/span&gt;&lt;span style=&quot;box-sizing: border-box; border: 0px solid oklch(0.928 0.006 264.531); margin: 0px; padding: 0px; scrollbar-color: rgb(213, 217, 224) rgba(0, 0, 0, 0); scrollbar-width: thin; color: rgb(120, 120, 120);&quot;&gt; // IO 绑定的协程句柄&lt;/span&gt;&#xa;&lt;/span&gt;&lt;/span&gt;&lt;span class=&quot;highlight-line&quot; style=&quot;box-sizing: border-box; border: 0px solid oklch(0.928 0.006 264.531); margin: 0px; padding: 0px; scrollbar-color: rgb(213, 217, 224) rgba(0, 0, 0, 0); scrollbar-width: thin; grid-column: span 2 / span 2; grid-template-columns: subgrid; border-radius: 4px; --tw-ring-shadow: 0 0 0 calc(1px + 0px)transparent; box-shadow: rgba(0, 0, 0, 0) 0px 0px 0px 0px, rgba(0, 0, 0, 0) 0px 0px 0px 0px, rgba(0, 0, 0, 0) 0px 0px 0px 0px, rgba(0, 0, 0, 0) 0px 0px 0px 1px, rgba(0, 0, 0, 0) 0px 0px 0px 0px; --tw-ring-color: transparent; display: grid; position: relative; counter-increment: line 1;&quot;&gt;&lt;span class=&quot;highlight-line-content&quot; style=&quot;box-sizing: border-box; border: 0px solid oklch(0.928 0.006 264.531); margin: 0px 0px 0px 12px; padding: 0px; scrollbar-color: rgb(213, 217, 224) rgba(0, 0, 0, 0); scrollbar-width: thin; font-size: 14px; line-height: 1.42857; display: block;&quot;&gt;&lt;span style=&quot;box-sizing: border-box; border: 0px solid oklch(0.928 0.006 264.531); margin: 0px; padding: 0px; scrollbar-color: rgb(213, 217, 224) rgba(0, 0, 0, 0); scrollbar-width: thin; color: rgb(28, 29, 31);&quot;&gt;    &lt;/span&gt;&lt;span style=&quot;box-sizing: border-box; border: 0px solid oklch(0.928 0.006 264.531); margin: 0px; padding: 0px; scrollbar-color: rgb(213, 217, 224) rgba(0, 0, 0, 0); scrollbar-width: thin; color: rgb(228, 0, 33);&quot;&gt;int32_t&lt;/span&gt;&lt;span style=&quot;box-sizing: border-box; border: 0px solid oklch(0.928 0.006 264.531); margin: 0px; padding: 0px; scrollbar-color: rgb(213, 217, 224) rgba(0, 0, 0, 0); scrollbar-width: thin; color: rgb(28, 29, 31);&quot;&gt;            result;&lt;/span&gt;&lt;span style=&quot;box-sizing: border-box; border: 0px solid oklch(0.928 0.006 264.531); margin: 0px; padding: 0px; scrollbar-color: rgb(213, 217, 224) rgba(0, 0, 0, 0); scrollbar-width: thin; color: rgb(120, 120, 120);&quot;&gt; // IO 执行完的结果&lt;/span&gt;&#xa;&lt;/span&gt;&lt;/span&gt;&lt;span class=&quot;highlight-line&quot; style=&quot;box-sizing: border-box; border: 0px solid oklch(0.928 0.006 264.531); margin: 0px; padding: 0px; scrollbar-color: rgb(213, 217, 224) rgba(0, 0, 0, 0); scrollbar-width: thin; grid-column: span 2 / span 2; grid-template-columns: subgrid; border-radius: 4px; --tw-ring-shadow: 0 0 0 calc(1px + 0px)transparent; box-shadow: rgba(0, 0, 0, 0) 0px 0px 0px 0px, rgba(0, 0, 0, 0) 0px 0px 0px 0px, rgba(0, 0, 0, 0) 0px 0px 0px 0px, rgba(0, 0, 0, 0) 0px 0px 0px 1px, rgba(0, 0, 0, 0) 0px 0px 0px 0px; --tw-ring-color: transparent; display: grid; position: relative; counter-increment: line 1;&quot;&gt;&lt;span class=&quot;highlight-line-content&quot; style=&quot;box-sizing: border-box; border: 0px solid oklch(0.928 0.006 264.531); margin: 0px 0px 0px 12px; padding: 0px; scrollbar-color: rgb(213, 217, 224) rgba(0, 0, 0, 0); scrollbar-width: thin; font-size: 14px; line-height: 1.42857; display: block;&quot;&gt;&lt;span style=&quot;box-sizing: border-box; border: 0px solid oklch(0.928 0.006 264.531); margin: 0px; padding: 0px; scrollbar-color: rgb(213, 217, 224) rgba(0, 0, 0, 0); scrollbar-width: thin; color: rgb(28, 29, 31);&quot;&gt;    io_type            type;&lt;/span&gt;&lt;span style=&quot;box-sizing: border-box; border: 0px solid oklch(0.928 0.006 264.531); margin: 0px; padding: 0px; scrollbar-color: rgb(213, 217, 224) rgba(0, 0, 0, 0); scrollbar-width: thin; color: rgb(120, 120, 120);&quot;&gt; // IO 类型&lt;/span&gt;&#xa;&lt;/span&gt;&lt;/span&gt;&lt;span class=&quot;highlight-line&quot; style=&quot;box-sizing: border-box; border: 0px solid oklch(0.928 0.006 264.531); margin: 0px; padding: 0px; scrollbar-color: rgb(213, 217, 224) rgba(0, 0, 0, 0); scrollbar-width: thin; grid-column: span 2 / span 2; grid-template-columns: subgrid; border-radius: 4px; --tw-ring-shadow: 0 0 0 calc(1px + 0px)rgb(200 205 213); box-shadow: rgba(0, 0, 0, 0) 0px 0px 0px 0px, rgba(0, 0, 0, 0) 0px 0px 0px 0px, rgba(0, 0, 0, 0) 0px 0px 0px 0px, rgb(200, 205, 213) 0px 0px 0px 1px, rgba(0, 0, 0, 0) 0px 0px 0px 0px; --tw-ring-color: rgb(200 205 213); display: grid; position: relative; counter-increment: line 1; z-index: 1;&quot;&gt;&lt;span class=&quot;highlight-line-content&quot; style=&quot;box-sizing: border-box; border: 0px solid oklch(0.928 0.006 264.531); margin: 0px 0px 0px 12px; padding: 0px; scrollbar-color: rgb(213, 217, 224) rgba(0, 0, 0, 0); scrollbar-width: thin; font-size: 14px; line-height: 1.42857; display: block;&quot;&gt;&lt;span style=&quot;box-sizing: border-box; border: 0px solid oklch(0.928 0.006 264.531); margin: 0px; padding: 0px; scrollbar-color: rgb(213, 217, 224) rgba(0, 0, 0, 0); scrollbar-width: thin; color: rgb(28, 29, 31);&quot;&gt;    &lt;/span&gt;&lt;span style=&quot;box-sizing: border-box; border: 0px solid oklch(0.928 0.006 264.531); margin: 0px; padding: 0px; scrollbar-color: rgb(213, 217, 224) rgba(0, 0, 0, 0); scrollbar-width: thin; color: rgb(228, 0, 33);&quot;&gt;uintptr_t&lt;/span&gt;&lt;span style=&quot;box-sizing: border-box; border: 0px solid oklch(0.928 0.006 264.531); margin: 0px; padding: 0px; scrollbar-color: rgb(213, 217, 224) rgba(0, 0, 0, 0); scrollbar-width: thin; color: rgb(28, 29, 31);&quot;&gt;          data;&lt;/span&gt;&lt;span style=&quot;box-sizing: border-box; border: 0px solid oklch(0.928 0.006 264.531); margin: 0px; padding: 0px; scrollbar-color: rgb(213, 217, 224) rgba(0, 0, 0, 0); scrollbar-width: thin; color: rgb(120, 120, 120);&quot;&gt; // IO 绑定的内存区域&lt;/span&gt;&#xa;&lt;/span&gt;&lt;/span&gt;&lt;span class=&quot;highlight-line&quot; style=&quot;box-sizing: border-box; border: 0px solid oklch(0.928 0.006 264.531); margin: 0px; padding: 0px; scrollbar-color: rgb(213, 217, 224) rgba(0, 0, 0, 0); scrollbar-width: thin; grid-column: span 2 / span 2; grid-template-columns: subgrid; border-radius: 4px; --tw-ring-shadow: 0 0 0 calc(1px + 0px)transparent; box-shadow: rgba(0, 0, 0, 0) 0px 0px 0px 0px, rgba(0, 0, 0, 0) 0px 0px 0px 0px, rgba(0, 0, 0, 0) 0px 0px 0px 0px, rgba(0, 0, 0, 0) 0px 0px 0px 1px, rgba(0, 0, 0, 0) 0px 0px 0px 0px; --tw-ring-color: transparent; display: grid; position: relative; counter-increment: line 1;&quot;&gt;&lt;span class=&quot;highlight-line-content&quot; style=&quot;box-sizing: border-box; border: 0px solid oklch(0.928 0.006 264.531); margin: 0px 0px 0px 12px; padding: 0px; scrollbar-color: rgb(213, 217, 224) rgba(0, 0, 0, 0); scrollbar-width: thin; font-size: 14px; line-height: 1.42857; display: block;&quot;&gt;&lt;span style=&quot;box-sizing: border-box; border: 0px solid oklch(0.928 0.006 264.531); margin: 0px; padding: 0px; scrollbar-color: rgb(213, 217, 224) rgba(0, 0, 0, 0); scrollbar-width: thin; color: rgb(28, 29, 31);&quot;&gt;    cb_type            cb;&lt;/span&gt;&lt;span style=&quot;box-sizing: border-box; border: 0px solid oklch(0.928 0.006 264.531); margin: 0px; padding: 0px; scrollbar-color: rgb(213, 217, 224) rgba(0, 0, 0, 0); scrollbar-width: thin; color: rgb(120, 120, 120);&quot;&gt; // IO 绑定的回调函数&lt;/span&gt;&#xa;&lt;/span&gt;&lt;/span&gt;&lt;span class=&quot;highlight-line&quot; style=&quot;box-sizing: border-box; border: 0px solid oklch(0.928 0.006 264.531); margin: 0px; padding: 0px; scrollbar-color: rgb(213, 217, 224) rgba(0, 0, 0, 0); scrollbar-width: thin; grid-column: span 2 / span 2; grid-template-columns: subgrid; border-radius: 4px; --tw-ring-shadow: 0 0 0 calc(1px + 0px)transparent; box-shadow: rgba(0, 0, 0, 0) 0px 0px 0px 0px, rgba(0, 0, 0, 0) 0px 0px 0px 0px, rgba(0, 0, 0, 0) 0px 0px 0px 0px, rgba(0, 0, 0, 0) 0px 0px 0px 1px, rgba(0, 0, 0, 0) 0px 0px 0px 0px; --tw-ring-color: transparent; display: grid; position: relative; counter-increment: line 1;&quot;&gt;&lt;span class=&quot;highlight-line-content&quot; style=&quot;box-sizing: border-box; border: 0px solid oklch(0.928 0.006 264.531); margin: 0px 0px 0px 12px; padding: 0px; scrollbar-color: rgb(213, 217, 224) rgba(0, 0, 0, 0); scrollbar-width: thin; font-size: 14px; line-height: 1.42857; display: block;&quot;&gt;&lt;span style=&quot;box-sizing: border-box; border: 0px solid oklch(0.928 0.006 264.531); margin: 0px; padding: 0px; scrollbar-color: rgb(213, 217, 224) rgba(0, 0, 0, 0); scrollbar-width: thin; color: rgb(28, 29, 31);&quot;&gt;};&lt;/span&gt;&lt;/span&gt;&lt;/span&gt;&lt;/code&gt;&lt;/pre&gt;" id="gBoSZ08GJuo9Bw_5KC7_-6">
          <mxCell style="text;whiteSpace=wrap;html=1;sketch=1;curveFitting=1;jiggle=2;" parent="1" vertex="1">
            <mxGeometry x="300" y="240" width="450" height="100" as="geometry" />
          </mxCell>
        </UserObject>
        <mxCell id="gBoSZ08GJuo9Bw_5KC7_-7" value="" style="rounded=0;whiteSpace=wrap;html=1;sketch=1;curveFitting=1;jiggle=2;" parent="1" vertex="1">
          <mxGeometry x="-460" y="410" width="520" height="210" as="geometry" />
        </mxCell>
        <mxCell id="gBoSZ08GJuo9Bw_5KC7_-8" value="engine" style="rounded=0;whiteSpace=wrap;html=1;sketch=1;curveFitting=1;jiggle=2;" parent="1" vertex="1">
          <mxGeometry x="-226" y="430" width="120" height="60" as="geometry" />
        </mxCell>
        <mxCell id="gBoSZ08GJuo9Bw_5KC7_-9" value="Text" style="text;html=1;align=center;verticalAlign=middle;whiteSpace=wrap;rounded=0;" parent="1" vertex="1">
          <mxGeometry x="380" y="300" width="60" height="30" as="geometry" />
        </mxCell>
        <mxCell id="gBoSZ08GJuo9Bw_5KC7_-10" value="Contexrt" style="text;html=1;align=center;verticalAlign=middle;whiteSpace=wrap;rounded=0;sketch=1;curveFitting=1;jiggle=2;" parent="1" vertex="1">
          <mxGeometry x="-430" y="440" width="60" height="30" as="geometry" />
        </mxCell>
        <mxCell id="gBoSZ08GJuo9Bw_5KC7_-11" value="" style="curved=1;endArrow=classic;html=1;rounded=0;exitX=0.5;exitY=0;exitDx=0;exitDy=0;entryX=0.75;entryY=1;entryDx=0;entryDy=0;" parent="1" source="gBoSZ08GJuo9Bw_5KC7_-8" target="gBoSZ08GJuo9Bw_5KC7_-1" edge="1">
          <mxGeometry width="50" height="50" relative="1" as="geometry">
            <mxPoint x="190" y="380" as="sourcePoint" />
            <mxPoint x="240" y="330" as="targetPoint" />
            <Array as="points">
              <mxPoint x="190" y="410" />
              <mxPoint x="240" y="380" />
              <mxPoint x="190" y="330" />
            </Array>
          </mxGeometry>
        </mxCell>
        <mxCell id="gBoSZ08GJuo9Bw_5KC7_-13" value="构造时获取一个sqe" style="edgeLabel;html=1;align=center;verticalAlign=middle;resizable=0;points=[];" parent="gBoSZ08GJuo9Bw_5KC7_-11" vertex="1" connectable="0">
          <mxGeometry x="0.5158" y="-4" relative="1" as="geometry">
            <mxPoint as="offset" />
          </mxGeometry>
        </mxCell>
        <mxCell id="gBoSZ08GJuo9Bw_5KC7_-14" value="&lt;div style=&quot;color: #f3f3f3;background-color: #191919;font-family: Consolas, &#39;Courier New&#39;, monospace;font-weight: normal;font-size: 14px;line-height: 19px;white-space: pre;&quot;&gt;&lt;div&gt;&lt;span style=&quot;color: #f3f3f3;&quot;&gt;&amp;nbsp; &amp;nbsp; &lt;/span&gt;&lt;span style=&quot;color: #82d2ce;&quot;&gt;constexpr&lt;/span&gt;&lt;span style=&quot;color: #f3f3f3;&quot;&gt; &lt;/span&gt;&lt;span style=&quot;color: #82d2ce;&quot;&gt;auto&lt;/span&gt;&lt;span style=&quot;color: #f3f3f3;&quot;&gt; &lt;/span&gt;&lt;span style=&quot;color: #87c3ff;&quot;&gt;await_ready&lt;/span&gt;&lt;span style=&quot;color: #f3f3f3;&quot;&gt;() &lt;/span&gt;&lt;span style=&quot;color: #d6d6dd;&quot;&gt;noexcept&lt;/span&gt;&lt;span style=&quot;color: #f3f3f3;&quot;&gt; &lt;/span&gt;&lt;span style=&quot;color: #d6d6dd;&quot;&gt;-&lt;/span&gt;&lt;span style=&quot;color: #83d6c5;&quot;&gt;&amp;gt;&lt;/span&gt;&lt;span style=&quot;color: #f3f3f3;&quot;&gt; &lt;/span&gt;&lt;span style=&quot;color: #82d2ce;&quot;&gt;bool&lt;/span&gt;&lt;span style=&quot;color: #f3f3f3;&quot;&gt; { &lt;/span&gt;&lt;span style=&quot;color: #83d6c5;&quot;&gt;return&lt;/span&gt;&lt;span style=&quot;color: #f3f3f3;&quot;&gt; &lt;/span&gt;&lt;span style=&quot;color: #82d2ce;&quot;&gt;false&lt;/span&gt;&lt;span style=&quot;color: #f3f3f3;&quot;&gt;; }&lt;/span&gt;&lt;/div&gt;&lt;br&gt;&lt;div&gt;&lt;span style=&quot;color: #f3f3f3;&quot;&gt;&amp;nbsp; &amp;nbsp; &lt;/span&gt;&lt;span style=&quot;color: #82d2ce;&quot;&gt;auto&lt;/span&gt;&lt;span style=&quot;color: #f3f3f3;&quot;&gt; &lt;/span&gt;&lt;span style=&quot;color: #87c3ff;&quot;&gt;await_suspend&lt;/span&gt;&lt;span style=&quot;color: #f3f3f3;&quot;&gt;(&lt;/span&gt;&lt;span style=&quot;color: #87c3ff;&quot;&gt;std&lt;/span&gt;&lt;span style=&quot;color: #f3f3f3;&quot;&gt;::&lt;/span&gt;&lt;span style=&quot;color: #87c3ff;&quot;&gt;coroutine_handle&lt;/span&gt;&lt;span style=&quot;color: #f3f3f3;&quot;&gt;&amp;lt;&amp;gt; &lt;/span&gt;&lt;span style=&quot;color: #d6d6dd;font-style: italic;&quot;&gt;handle&lt;/span&gt;&lt;span style=&quot;color: #f3f3f3;&quot;&gt;) &lt;/span&gt;&lt;span style=&quot;color: #d6d6dd;&quot;&gt;noexcept&lt;/span&gt;&lt;span style=&quot;color: #f3f3f3;&quot;&gt; &lt;/span&gt;&lt;span style=&quot;color: #d6d6dd;&quot;&gt;-&lt;/span&gt;&lt;span style=&quot;color: #83d6c5;&quot;&gt;&amp;gt;&lt;/span&gt;&lt;span style=&quot;color: #f3f3f3;&quot;&gt; &lt;/span&gt;&lt;span style=&quot;color: #82d2ce;&quot;&gt;void&lt;/span&gt;&lt;span style=&quot;color: #f3f3f3;&quot;&gt; { &lt;/span&gt;&lt;span style=&quot;color: #af9cff;&quot;&gt;m_info&lt;/span&gt;&lt;span style=&quot;color: #f3f3f3;&quot;&gt;.&lt;/span&gt;&lt;span style=&quot;color: #af9cff;&quot;&gt;handle&lt;/span&gt;&lt;span style=&quot;color: #f3f3f3;&quot;&gt; &lt;/span&gt;&lt;span style=&quot;color: #cccccc;&quot;&gt;=&lt;/span&gt;&lt;span style=&quot;color: #f3f3f3;&quot;&gt; &lt;/span&gt;&lt;span style=&quot;color: #d6d6dd;font-style: italic;&quot;&gt;handle&lt;/span&gt;&lt;span style=&quot;color: #f3f3f3;&quot;&gt;; }&lt;/span&gt;&lt;/div&gt;&lt;br&gt;&lt;div&gt;&lt;span style=&quot;color: #f3f3f3;&quot;&gt;&amp;nbsp; &amp;nbsp; &lt;/span&gt;&lt;span style=&quot;color: #82d2ce;&quot;&gt;auto&lt;/span&gt;&lt;span style=&quot;color: #f3f3f3;&quot;&gt; &lt;/span&gt;&lt;span style=&quot;color: #87c3ff;&quot;&gt;await_resume&lt;/span&gt;&lt;span style=&quot;color: #f3f3f3;&quot;&gt;() &lt;/span&gt;&lt;span style=&quot;color: #d6d6dd;&quot;&gt;noexcept&lt;/span&gt;&lt;span style=&quot;color: #f3f3f3;&quot;&gt; &lt;/span&gt;&lt;span style=&quot;color: #d6d6dd;&quot;&gt;-&lt;/span&gt;&lt;span style=&quot;color: #83d6c5;&quot;&gt;&amp;gt;&lt;/span&gt;&lt;span style=&quot;color: #f3f3f3;&quot;&gt; &lt;/span&gt;&lt;span style=&quot;color: #87c3ff;&quot;&gt;int32_t&lt;/span&gt;&lt;span style=&quot;color: #f3f3f3;&quot;&gt; { &lt;/span&gt;&lt;span style=&quot;color: #83d6c5;&quot;&gt;return&lt;/span&gt;&lt;span style=&quot;color: #f3f3f3;&quot;&gt; &lt;/span&gt;&lt;span style=&quot;color: #af9cff;&quot;&gt;m_info&lt;/span&gt;&lt;span style=&quot;color: #f3f3f3;&quot;&gt;.&lt;/span&gt;&lt;span style=&quot;color: #af9cff;&quot;&gt;result&lt;/span&gt;&lt;span style=&quot;color: #f3f3f3;&quot;&gt;; }&lt;/span&gt;&lt;/div&gt;&lt;/div&gt;" style="text;whiteSpace=wrap;html=1;" parent="1" vertex="1">
          <mxGeometry x="-920" y="205" width="770" height="110" as="geometry" />
        </mxCell>
        <mxCell id="0tBfHXZ70Nn7XEM_04Zy-5" style="edgeStyle=orthogonalEdgeStyle;rounded=0;orthogonalLoop=1;jettySize=auto;html=1;entryX=0;entryY=0.5;entryDx=0;entryDy=0;" edge="1" parent="1" source="0tBfHXZ70Nn7XEM_04Zy-1" target="0tBfHXZ70Nn7XEM_04Zy-4">
          <mxGeometry relative="1" as="geometry" />
        </mxCell>
        <mxCell id="0tBfHXZ70Nn7XEM_04Zy-6" value="构造函数中执行" style="edgeLabel;html=1;align=center;verticalAlign=middle;resizable=0;points=[];" vertex="1" connectable="0" parent="0tBfHXZ70Nn7XEM_04Zy-5">
          <mxGeometry x="-0.3111" y="1" relative="1" as="geometry">
            <mxPoint as="offset" />
          </mxGeometry>
        </mxCell>
        <mxCell id="0tBfHXZ70Nn7XEM_04Zy-1" value="custom_io_waiter" style="rounded=0;whiteSpace=wrap;html=1;sketch=1;curveFitting=1;jiggle=2;" vertex="1" parent="1">
          <mxGeometry x="80" y="630" width="180" height="60" as="geometry" />
        </mxCell>
        <mxCell id="0tBfHXZ70Nn7XEM_04Zy-2" style="edgeStyle=orthogonalEdgeStyle;rounded=0;orthogonalLoop=1;jettySize=auto;html=1;entryX=0.506;entryY=0.117;entryDx=0;entryDy=0;entryPerimeter=0;" edge="1" parent="1" source="gBoSZ08GJuo9Bw_5KC7_-1" target="0tBfHXZ70Nn7XEM_04Zy-1">
          <mxGeometry relative="1" as="geometry" />
        </mxCell>
        <mxCell id="0tBfHXZ70Nn7XEM_04Zy-3" value="&lt;span style=&quot;color: rgb(28, 29, 31); font-family: Inter, &amp;quot;Inter Fallback&amp;quot;, system-ui, arial; font-size: medium; font-style: normal; font-variant-ligatures: normal; font-variant-caps: normal; font-weight: 400; letter-spacing: normal; orphans: 2; text-align: start; text-indent: 0px; text-transform: none; widows: 2; word-spacing: 0px; -webkit-text-stroke-width: 0px; white-space: pre-wrap; background-color: rgb(255, 255, 255); text-decoration-thickness: initial; text-decoration-style: initial; text-decoration-color: initial; display: inline !important; float: none;&quot;&gt;首先与 IO 绑定的 awaiter 其构造函数应该包含发起 IO 需要的数据，比如&lt;/span&gt;&lt;code class=&quot;py-px px-1.5 min-w-6.5 justify-center items-center ring-1 ring-inset ring-tint bg-tint rounded-sm text-[.875em] leading-[calc(max(1.20em,1.25rem))]&quot; style=&quot;box-sizing: border-box; border: 0px solid oklch(0.928 0.006 264.531); margin: 0px; padding: 0px; scrollbar-color: rgb(213, 217, 224) rgba(0, 0, 0, 0); scrollbar-width: thin; font-family: &amp;quot;IBM Plex Mono&amp;quot;, monospace; font-feature-settings: normal; font-variation-settings: normal; font-size: 0.875em; -webkit-font-smoothing: auto; min-width: 26px; align-items: center; justify-content: center; border-radius: 4px; background-color: rgb(246, 247, 250); padding-inline: 6px; padding-block: 1px; --tw-leading: calc(max(1.2em,1.25rem)); line-height: max(1.2em, 1.25rem); --tw-ring-shadow: inset/**/0 0 0 calc(1px + 0px)rgb(213 217 224); box-shadow: rgba(0, 0, 0, 0) 0px 0px 0px 0px, rgba(0, 0, 0, 0) 0px 0px 0px 0px, rgba(0, 0, 0, 0) 0px 0px 0px 0px, rgb(213, 217, 224) 0px 0px 0px 1px inset, rgba(0, 0, 0, 0) 0px 0px 0px 0px; --tw-ring-color: rgb(213 217 224); --tw-ring-inset: inset; color: rgb(28, 29, 31); font-style: normal; font-variant-ligatures: normal; font-variant-caps: normal; font-weight: 400; letter-spacing: normal; orphans: 2; text-align: start; text-indent: 0px; text-transform: none; widows: 2; word-spacing: 0px; -webkit-text-stroke-width: 0px; white-space: pre-wrap; text-decoration-thickness: initial; text-decoration-style: initial; text-decoration-color: initial;&quot;&gt;tcp_accept_awaiter&lt;/code&gt;&lt;span style=&quot;color: rgb(28, 29, 31); font-family: Inter, &amp;quot;Inter Fallback&amp;quot;, system-ui, arial; font-size: medium; font-style: normal; font-variant-ligatures: normal; font-variant-caps: normal; font-weight: 400; letter-spacing: normal; orphans: 2; text-align: start; text-indent: 0px; text-transform: none; widows: 2; word-spacing: 0px; -webkit-text-stroke-width: 0px; white-space: pre-wrap; background-color: rgb(255, 255, 255); text-decoration-thickness: initial; text-decoration-style: initial; text-decoration-color: initial; display: inline !important; float: none;&quot;&gt;构造函数就包括监听文件描述符和标志位，然后所有的 awaiter 都必须添加一个回调函数且形式全部统一，该回调函数入参是&lt;/span&gt;&lt;code class=&quot;py-px px-1.5 min-w-6.5 justify-center items-center ring-1 ring-inset ring-tint bg-tint rounded-sm text-[.875em] leading-[calc(max(1.20em,1.25rem))]&quot; style=&quot;box-sizing: border-box; border: 0px solid oklch(0.928 0.006 264.531); margin: 0px; padding: 0px; scrollbar-color: rgb(213, 217, 224) rgba(0, 0, 0, 0); scrollbar-width: thin; font-family: &amp;quot;IBM Plex Mono&amp;quot;, monospace; font-feature-settings: normal; font-variation-settings: normal; font-size: 0.875em; -webkit-font-smoothing: auto; min-width: 26px; align-items: center; justify-content: center; border-radius: 4px; background-color: rgb(246, 247, 250); padding-inline: 6px; padding-block: 1px; --tw-leading: calc(max(1.2em,1.25rem)); line-height: max(1.2em, 1.25rem); --tw-ring-shadow: inset/**/0 0 0 calc(1px + 0px)rgb(213 217 224); box-shadow: rgba(0, 0, 0, 0) 0px 0px 0px 0px, rgba(0, 0, 0, 0) 0px 0px 0px 0px, rgba(0, 0, 0, 0) 0px 0px 0px 0px, rgb(213, 217, 224) 0px 0px 0px 1px inset, rgba(0, 0, 0, 0) 0px 0px 0px 0px; --tw-ring-color: rgb(213 217 224); --tw-ring-inset: inset; color: rgb(28, 29, 31); font-style: normal; font-variant-ligatures: normal; font-variant-caps: normal; font-weight: 400; letter-spacing: normal; orphans: 2; text-align: start; text-indent: 0px; text-transform: none; widows: 2; word-spacing: 0px; -webkit-text-stroke-width: 0px; white-space: pre-wrap; text-decoration-thickness: initial; text-decoration-style: initial; text-decoration-color: initial;&quot;&gt;io_info&lt;/code&gt;&lt;span style=&quot;color: rgb(28, 29, 31); font-family: Inter, &amp;quot;Inter Fallback&amp;quot;, system-ui, arial; font-size: medium; font-style: normal; font-variant-ligatures: normal; font-variant-caps: normal; font-weight: 400; letter-spacing: normal; orphans: 2; text-align: start; text-indent: 0px; text-transform: none; widows: 2; word-spacing: 0px; -webkit-text-stroke-width: 0px; white-space: pre-wrap; background-color: rgb(255, 255, 255); text-decoration-thickness: initial; text-decoration-style: initial; text-decoration-color: initial; display: inline !important; float: none;&quot;&gt;和 IO 操作返回值。&lt;/span&gt;" style="text;whiteSpace=wrap;html=1;" vertex="1" parent="1">
          <mxGeometry x="310" y="600" width="550" height="110" as="geometry" />
        </mxCell>
        <mxCell id="0tBfHXZ70Nn7XEM_04Zy-18" style="edgeStyle=orthogonalEdgeStyle;rounded=0;orthogonalLoop=1;jettySize=auto;html=1;" edge="1" parent="1" source="0tBfHXZ70Nn7XEM_04Zy-4" target="0tBfHXZ70Nn7XEM_04Zy-9">
          <mxGeometry relative="1" as="geometry" />
        </mxCell>
        <mxCell id="0tBfHXZ70Nn7XEM_04Zy-4" value="local_engin().add_io_submit" style="rounded=0;whiteSpace=wrap;html=1;sketch=1;curveFitting=1;jiggle=2;" vertex="1" parent="1">
          <mxGeometry x="130" y="760" width="180" height="60" as="geometry" />
        </mxCell>
        <mxCell id="0tBfHXZ70Nn7XEM_04Zy-8" value="context::run" style="rounded=0;whiteSpace=wrap;html=1;sketch=1;curveFitting=1;jiggle=2;" vertex="1" parent="1">
          <mxGeometry x="-460" y="670" width="130" height="40" as="geometry" />
        </mxCell>
        <mxCell id="0tBfHXZ70Nn7XEM_04Zy-20" value="" style="edgeStyle=orthogonalEdgeStyle;rounded=0;orthogonalLoop=1;jettySize=auto;html=1;" edge="1" parent="1" source="0tBfHXZ70Nn7XEM_04Zy-9" target="0tBfHXZ70Nn7XEM_04Zy-11">
          <mxGeometry relative="1" as="geometry" />
        </mxCell>
        <mxCell id="0tBfHXZ70Nn7XEM_04Zy-9" value="poll_submit" style="rounded=0;whiteSpace=wrap;html=1;sketch=1;curveFitting=1;jiggle=2;" vertex="1" parent="1">
          <mxGeometry x="155" y="850" width="130" height="40" as="geometry" />
        </mxCell>
        <mxCell id="0tBfHXZ70Nn7XEM_04Zy-16" value="" style="edgeStyle=orthogonalEdgeStyle;rounded=0;orthogonalLoop=1;jettySize=auto;html=1;" edge="1" parent="1" source="0tBfHXZ70Nn7XEM_04Zy-10" target="0tBfHXZ70Nn7XEM_04Zy-11">
          <mxGeometry relative="1" as="geometry" />
        </mxCell>
        <mxCell id="0tBfHXZ70Nn7XEM_04Zy-10" value="handle_cqe_entry" style="rounded=0;whiteSpace=wrap;html=1;sketch=1;curveFitting=1;jiggle=2;" vertex="1" parent="1">
          <mxGeometry x="155" y="920" width="130" height="40" as="geometry" />
        </mxCell>
        <mxCell id="0tBfHXZ70Nn7XEM_04Zy-11" value="submit_task" style="rounded=0;whiteSpace=wrap;html=1;sketch=1;curveFitting=1;jiggle=2;" vertex="1" parent="1">
          <mxGeometry x="155" y="1000" width="130" height="40" as="geometry" />
        </mxCell>
        <mxCell id="0tBfHXZ70Nn7XEM_04Zy-12" style="edgeStyle=orthogonalEdgeStyle;rounded=0;orthogonalLoop=1;jettySize=auto;html=1;entryX=0.462;entryY=1.175;entryDx=0;entryDy=0;entryPerimeter=0;" edge="1" parent="1" source="0tBfHXZ70Nn7XEM_04Zy-11" target="0tBfHXZ70Nn7XEM_04Zy-8">
          <mxGeometry relative="1" as="geometry" />
        </mxCell>
        <mxCell id="0tBfHXZ70Nn7XEM_04Zy-23" style="edgeStyle=orthogonalEdgeStyle;rounded=0;orthogonalLoop=1;jettySize=auto;html=1;entryX=0;entryY=0.5;entryDx=0;entryDy=0;" edge="1" parent="1" source="0tBfHXZ70Nn7XEM_04Zy-21" target="0tBfHXZ70Nn7XEM_04Zy-9">
          <mxGeometry relative="1" as="geometry" />
        </mxCell>
        <mxCell id="0tBfHXZ70Nn7XEM_04Zy-21" value="exec_one_task" style="rounded=0;whiteSpace=wrap;html=1;sketch=1;curveFitting=1;jiggle=2;" vertex="1" parent="1">
          <mxGeometry x="-250" y="670" width="130" height="40" as="geometry" />
        </mxCell>
        <mxCell id="0tBfHXZ70Nn7XEM_04Zy-22" style="edgeStyle=orthogonalEdgeStyle;rounded=0;orthogonalLoop=1;jettySize=auto;html=1;entryX=-0.046;entryY=0.525;entryDx=0;entryDy=0;entryPerimeter=0;" edge="1" parent="1" source="0tBfHXZ70Nn7XEM_04Zy-8" target="0tBfHXZ70Nn7XEM_04Zy-21">
          <mxGeometry relative="1" as="geometry" />
        </mxCell>
      </root>
    </mxGraphModel>
  </diagram>
</mxfile>
